<?xml version="1.0" encoding="UTF-8" standalone="no"?>
<!-- Created with Inkscape (http://www.inkscape.org/) -->
<svg xmlns:svg="http://www.w3.org/2000/svg" xmlns="http://www.w3.org/2000/svg" version="1.0" width="136.14342" height="112.74567" id="svg2">
  <defs id="defs4"/>
  <g transform="translate(-296.17734,-476.66)" id="layer1">
    <path d="M 357.51656,518.30794 L 367.79785,518.30794 C 369.22817,518.27167 370.41894,517.77794 371.37016,516.82674 C 372.32127,515.87561 372.815,514.68484 372.85136,513.25443 C 372.815,511.82409 372.32127,510.63332 371.37016,509.68211 C 370.41894,508.73099 369.22817,508.23726 367.79785,508.20091 L 360.47896,508.20091 C 361.6588,502.95504 363.26343,498.11209 365.29288,493.67205 C 367.32221,489.23214 370.53874,486.87238 374.94247,486.59277 L 376.16229,486.59277 C 377.16059,486.56744 378.03914,486.66183 378.79796,486.87595 C 379.55664,487.09021 379.95599,487.57668 379.99599,488.33537 C 379.72002,490.77143 378.61638,492.39059 376.68507,493.19284 C 374.75363,493.99522 373.64999,495.57081 373.37414,497.91962 C 373.43217,500.06887 374.18729,501.86955 375.63951,503.32165 C 377.09161,504.77387 378.89228,505.52899 381.04154,505.58702 C 384.08738,505.44186 386.36001,504.03326 387.85943,501.36124 C 389.35871,498.68932 390.10657,495.62527 390.10302,492.16907 C 389.99403,487.78724 388.51283,484.13507 385.65941,481.21252 C 382.80585,478.29013 379.23354,476.77262 374.94247,476.66 C 366.85026,476.96141 359.5096,480.19246 352.92047,486.35317 C 346.33126,492.51403 341.4738,499.7966 338.34805,508.20091 L 329.11232,508.20091 C 327.68192,508.23726 326.49115,508.73099 325.54,509.68211 C 324.58883,510.63332 324.09509,511.82409 324.0588,513.25443 C 324.09509,514.68484 324.58883,515.87561 325.54,516.82674 C 326.49115,517.77794 327.68192,518.27167 329.11232,518.30794 L 335.55991,518.30794 L 324.0588,564.1381 C 323.14756,568.06255 321.70266,571.58403 319.7241,574.70256 C 317.74553,577.82105 314.95013,579.46925 311.33788,579.64716 L 310.29233,579.64716 C 309.21048,579.67619 308.28109,579.57453 307.50418,579.34221 C 306.72728,579.10984 306.32068,578.57254 306.28437,577.73031 C 306.56029,575.38143 307.66393,573.80583 309.59529,573.00353 C 311.52667,572.2012 312.63031,570.58204 312.90622,568.14606 C 312.85902,566.00411 312.12568,564.23248 310.70619,562.83115 C 309.28671,561.42981 307.46425,560.70373 305.23881,560.65292 C 302.26916,560.78724 300.01831,562.17405 298.48627,564.81335 C 296.95425,567.45264 296.18461,570.53848 296.17734,574.07087 C 296.28627,578.44548 297.76747,582.06861 300.62094,584.94028 C 303.47444,587.8119 307.04675,589.30036 311.33788,589.40568 C 317.08628,589.17653 322.51197,586.61428 327.61498,581.71891 C 332.71795,576.8235 337.16263,570.96969 340.94903,564.15746 C 344.73537,557.34522 347.52782,550.94927 349.32638,544.96959 L 357.51656,518.30794 z M 397.99169,552.11422 C 396.0131,552.07792 394.61177,551.45349 393.78769,550.24093 C 392.96357,549.02838 392.56422,547.44553 392.58966,545.49237 C 392.61331,542.47619 393.37918,538.55644 394.8873,533.7331 C 396.39537,528.90981 398.50368,524.55118 401.21226,520.65721 C 403.92077,516.76331 407.08755,514.70232 410.71261,514.47424 C 412.26638,514.51785 413.38454,515.08419 414.0671,516.17327 C 414.74957,517.26243 415.08357,518.61293 415.06909,520.22479 C 415.08088,521.49627 414.49571,524.6652 413.31359,529.73159 C 412.13138,534.79804 410.28122,539.70956 407.76311,544.46617 C 405.24492,549.22281 401.98779,551.77216 397.99169,552.11422 L 397.99169,552.11422 z M 361.04875,532.77145 C 361.08144,533.81703 361.45174,534.60119 362.15965,535.12395 C 362.86759,535.64674 363.7171,535.90813 364.7082,535.90812 C 367.82658,535.64352 370.10916,533.79121 371.55593,530.35119 C 373.00271,526.91121 374.42045,523.47121 375.80915,520.03117 C 377.19784,516.5912 379.36424,514.7389 382.30837,514.47424 C 382.82387,514.47428 383.18691,514.60498 383.39749,514.86632 C 383.60804,515.12775 383.70969,515.51984 383.70244,516.04257 C 383.69517,516.58354 383.579,517.24427 383.35392,518.02477 C 383.12883,518.80534 382.83839,519.59677 382.48263,520.39905 L 366.45079,567.79754 C 364.95453,571.46127 362.71928,573.54377 359.74503,574.04505 C 356.77081,574.5463 354.01924,574.83458 351.49031,574.90989 C 348.96142,574.98517 347.61683,576.21574 347.45654,578.60161 C 347.46019,579.51644 347.75789,580.34417 348.34962,581.0848 C 348.94139,581.82538 349.80543,582.21746 350.94172,582.26105 C 351.24306,582.22472 353.16717,582.0795 356.71406,581.8254 C 360.26097,581.57125 364.66827,581.42603 369.93597,581.38975 C 375.03304,581.42603 379.34595,581.57125 382.87471,581.8254 C 386.40344,582.0795 388.36386,582.22472 388.75596,582.26105 C 389.89225,582.21746 390.75629,581.82538 391.34806,581.0848 C 391.93979,580.34418 392.23749,579.51645 392.24114,578.60161 C 392.1314,576.46638 391.36337,575.33477 389.93705,575.20678 C 388.51069,575.07875 387.08434,574.8249 385.65802,574.4452 C 384.23166,574.06547 383.46363,572.43045 383.35392,569.54013 C 383.36117,568.85034 383.43378,568.18235 383.57175,567.53615 C 383.70969,566.88993 383.86943,566.22193 384.05096,565.53217 L 387.01337,556.64495 C 387.72854,554.90963 389.43482,554.76441 392.13223,556.2093 C 394.82959,557.6542 398.93194,558.55454 404.43928,558.91032 C 409.94655,558.79415 415.83505,555.8027 422.1048,549.93597 C 428.37444,544.06926 431.77976,536.02431 432.32075,525.80108 C 432.29527,520.01789 430.69064,515.29112 427.50684,511.62074 C 424.32292,507.95046 419.71232,506.05539 413.67502,505.93554 C 410.56372,505.97553 407.4198,506.81052 404.24323,508.44051 C 401.0666,510.07061 398.22764,512.25611 395.72632,514.99702 C 395.11639,512.40859 393.94014,510.26665 392.19757,508.57121 C 390.45496,506.87586 388.14603,505.99731 385.27078,505.93554 C 380.47326,506.22817 376.26308,508.39243 372.64021,512.4283 C 369.01735,516.46427 366.18833,520.61637 364.15315,524.88461 C 362.11798,529.15291 361.08318,531.78185 361.04875,532.77145 L 361.04875,532.77145 z" id="text2502" style="font-size:174.26139832px;font-style:normal;font-variant:normal;font-weight:normal;font-stretch:normal;text-align:center;text-anchor:middle;fill:#000000;fill-opacity:1;stroke:none;stroke-width:1px;stroke-linecap:butt;stroke-linejoin:miter;stroke-opacity:1;font-family:Emmentaler;-inkscape-font-specification:Emmentaler"/>
  </g>
</svg>